<?xml version="1.0" ?><!DOCTYPE svg  PUBLIC '-//W3C//DTD SVG 1.1//EN'  'http://www.w3.org/Graphics/SVG/1.1/DTD/svg11.dtd'><svg height="8.26772in" style="shape-rendering:geometricPrecision; text-rendering:geometricPrecision; image-rendering:optimizeQuality; fill-rule:evenodd; clip-rule:evenodd" version="1.1" viewBox="0 0 826772 826772" width="8.26772in" xml:space="preserve" xmlns="http://www.w3.org/2000/svg" xmlns:xlink="http://www.w3.org/1999/xlink"><defs><style type="text/css">
   <![CDATA[
    .fil0 {fill:#719A4E}
    .fil2 {fill:#719A4E}
    .fil1 {fill:#7FAD5B}
    .fil3 {fill:white;fill-rule:nonzero}
   ]]>
  </style></defs><g id="Layer_x0020_1"><circle class="fil0" cx="413386" cy="413386" r="413386"/><path class="fil1" d="M825594 444750c-16029,213654 -194454,382022 -412208,382022 -217755,0 -396180,-168368 -412208,-382022 16028,-213654 194453,-388715 412208,-388715 217754,0 396179,175061 412208,388715z"/><path class="fil2" d="M728684 680722c-74250,87487 -184255,143657 -307443,145955l-178689 -239342 0 -3116 0 -212509 0 -15269 10708 0 23269 -33183 906 -1291c-19666,-2450 -34883,-19224 -34883,-39554 0,-22014 17846,-39861 39861,-39861 15474,0 28888,8818 35493,21702l0 -1 64915 92188 48513 0 0 30739 980 0c9453,-17949 32572,-30739 67001,-30739 41692,0 63608,13933 74650,37693l6 1 154713 286587z"/><polygon class="fil3" points="242552,356441 322274,356441 322274,584219 242552,584219 "/><path class="fil3" d="M282413 242552c22015,0 39861,17847 39861,39861 0,22015 -17846,39862 -39861,39862 -22015,0 -39861,-17847 -39861,-39862 0,-22014 17846,-39861 39861,-39861z"/><path class="fil3" d="M584219 459044c0,-61466 -13257,-102603 -84904,-102603 -34429,0 -57548,12790 -67001,30739l-980 0 0 -30739 -63504 0 0 227778 66375 0 0 -112898c0,-29771 5625,-58595 42457,-58595 36285,0 39213,34040 39213,60520l0 110973 68332 0 0 -125175 12 0z"/></g></svg>