<?xml version="1.0" ?><!DOCTYPE svg  PUBLIC '-//W3C//DTD SVG 1.1//EN'  'http://www.w3.org/Graphics/SVG/1.1/DTD/svg11.dtd'><svg height="8.26772in" style="shape-rendering:geometricPrecision; text-rendering:geometricPrecision; image-rendering:optimizeQuality; fill-rule:evenodd; clip-rule:evenodd" version="1.1" viewBox="0 0 8268 8268" width="8.26772in" xml:space="preserve" xmlns="http://www.w3.org/2000/svg" xmlns:xlink="http://www.w3.org/1999/xlink"><defs><style type="text/css">
   <![CDATA[
    .fil3 {fill:#FEFEFE}
    .fil0 {fill:#719A4E}
    .fil2 {fill:#719A4E}
    .fil1 {fill:#7FAD5B}
   ]]>
  </style></defs><g id="Layer_x0020_1"><circle class="fil0" cx="4134" cy="4134" r="4134"/><path class="fil1" d="M8256 4448c-160,2136 -1945,3820 -4122,3820 -2178,0 -3962,-1684 -4122,-3820 160,-2137 1944,-3888 4122,-3888 2177,0 3962,1751 4122,3888z"/><g id="_1271823948064"><path class="fil2" d="M7392 6678c-668,854 -1664,1439 -2799,1564l-2955 -2260 1654 231 3338 -3347 762 3812z"/><path class="fil2" d="M6583 2781c12,-35 18,-73 18,-110 0,-189 -151,-345 -339,-348l-29 0c-52,3 -101,18 -145,41 -14,5 -26,14 -37,20 -6,3 -12,6 -18,9 -90,34 -182,69 -278,104 -159,-116 -347,-203 -570,-252 -26,-6 -52,-15 -79,-15l-246 0c-29,0 -61,12 -89,18 -195,52 -397,124 -583,278 -252,211 -405,481 -454,790 -507,-107 -927,-353 -1272,-767 -66,-78 -162,-116 -266,-116 -101,0 -200,41 -266,119 -192,229 -264,530 -203,857 17,90 43,180 78,269 -46,53 -75,116 -84,186 -40,330 78,640 333,898 -11,49 -14,98 -3,147 44,226 160,420 336,571 -107,23 -223,37 -344,37 -35,0 -70,0 -105,-3l-26 0c-150,0 -286,99 -330,244 -49,153 15,321 154,402 11,6 23,15 34,21 29,17 64,37 99,57 446,238 921,360 1407,360 180,0 362,-18 545,-50 593,-104 1123,-376 1535,-779 411,-402 697,-935 825,-1535 29,-139 40,-275 49,-405 3,-49 6,-96 12,-142 150,-133 281,-275 394,-437 40,-58 66,-128 66,-203 0,-107 -46,-203 -119,-266z"/></g><path class="fil3" d="M6583 2781c12,-35 18,-73 18,-110 0,-189 -151,-345 -339,-348l-29 0c-52,3 -101,18 -145,41 -14,5 -26,14 -37,20 -6,3 -12,6 -18,9 -90,34 -182,69 -278,104 -159,-116 -347,-203 -570,-252 -26,-6 -52,-15 -79,-15l-246 0c-29,0 -61,12 -89,18 -195,52 -397,124 -583,278 -252,211 -405,481 -454,790 -507,-107 -927,-353 -1272,-767 -66,-78 -162,-116 -266,-116 -101,0 -200,41 -266,119 -192,229 -264,530 -203,857 17,90 43,180 78,269 -46,53 -75,116 -84,186 -40,330 78,640 333,898 -11,49 -14,98 -3,147 44,226 160,420 336,571 -107,23 -223,37 -344,37 -35,0 -70,0 -105,-3l-26 0c-150,0 -286,99 -330,244 -49,153 15,321 154,402 11,6 23,15 34,21 29,17 64,37 99,57 446,238 921,360 1407,360 180,0 362,-18 545,-50 593,-104 1123,-376 1535,-779 411,-402 697,-935 825,-1535 29,-139 40,-275 49,-405 3,-49 6,-96 12,-142 150,-133 281,-275 394,-437 40,-58 66,-128 66,-203 0,-107 -46,-203 -119,-266zm-622 689c-29,26 -52,75 -58,116 -23,191 -23,388 -64,573 -234,1089 -1016,1857 -2082,2048 -162,29 -324,43 -484,43 -431,0 -845,-107 -1242,-318 -41,-21 -78,-47 -119,-70 44,3 87,6 131,6 518,0 990,-220 1167,-400 -455,-69 -756,-304 -817,-620 119,-5 237,-14 359,-20 -484,-232 -727,-556 -683,-921 115,29 234,58 350,87 -382,-408 -481,-918 -223,-1222 489,582 1118,892 1885,944 -3,-23 -6,-38 -6,-52 -37,-348 64,-646 339,-875 131,-110 287,-153 449,-211l246 0c209,58 397,139 556,287 9,5 24,14 38,14 9,0 20,0 26,-3 145,-52 290,-104 434,-159 26,-12 53,-26 93,-46 -81,214 -211,365 -382,483 3,6 6,15 11,21 154,-44 310,-87 472,-134 -115,165 -246,304 -396,429z"/></g></svg>